<?xml version="1.0" standalone="no"?>
<!DOCTYPE svg PUBLIC "-//W3C//DTD SVG 20010904//EN"
 "http://www.w3.org/TR/2001/REC-SVG-20010904/DTD/svg10.dtd">
<svg version="1.0" xmlns="http://www.w3.org/2000/svg"
 width="1080.000000pt" height="859.000000pt" viewBox="0 0 1080.000000 859.000000"
 preserveAspectRatio="xMidYMid meet">

<g transform="translate(0.000000,859.000000) scale(0.100000,-0.100000)"
fill="#000000" stroke="none">
<path d="M0 7885 c0 -422 4 -705 9 -705 18 0 71 35 71 47 0 7 9 17 20 23 11 6
20 17 20 25 0 7 9 17 20 20 11 3 20 12 20 20 0 7 12 27 27 43 16 16 57 62 93
101 123 136 189 201 205 201 8 0 15 5 15 10 0 6 14 23 31 38 18 15 45 39 61
55 16 15 33 27 37 27 4 0 25 18 46 40 21 22 42 40 45 40 3 0 35 27 70 60 35
33 68 60 72 60 5 0 21 13 37 29 16 16 43 37 60 46 18 9 35 23 38 31 3 7 13 14
22 14 9 0 34 14 55 30 22 17 44 30 48 30 5 0 21 14 35 30 13 17 31 30 38 30 8
0 26 11 41 25 15 14 67 49 116 77 48 28 88 54 88 59 0 4 18 14 40 20 22 7 40
16 40 20 0 4 25 19 55 34 31 14 68 39 84 55 15 17 33 30 38 30 5 0 18 9 28 20
18 20 17 20 -853 20 l-872 0 0 -705z"/>
<path d="M9075 8570 c10 -11 23 -20 28 -20 5 0 23 -13 38 -30 16 -16 53 -41
84 -55 30 -15 55 -30 55 -34 0 -4 18 -13 40 -20 22 -6 40 -16 40 -20 0 -5 40
-31 88 -59 49 -28 101 -63 116 -77 15 -14 33 -25 41 -25 7 0 25 -13 38 -30 14
-16 30 -30 35 -30 4 0 26 -13 48 -30 21 -16 46 -30 55 -30 9 0 19 -7 22 -14 3
-8 20 -22 38 -31 17 -9 44 -30 60 -46 16 -16 32 -29 37 -29 4 0 37 -27 72 -60
35 -33 67 -60 70 -60 3 0 24 -18 45 -40 21 -22 42 -40 46 -40 4 0 21 -12 37
-27 16 -16 43 -40 61 -55 17 -15 31 -32 31 -38 0 -5 7 -10 15 -10 8 0 75 -61
147 -135 215 -220 258 -266 258 -280 0 -7 8 -15 18 -18 9 -4 27 -14 40 -23
l22 -16 0 701 0 701 -872 0 c-870 0 -871 0 -853 -20z"/>
<path d="M2030 7808 c0 -5 -6 -8 -12 -8 -7 0 -26 -16 -42 -36 -22 -28 -29 -46
-28 -77 2 -42 17 -104 30 -125 10 -14 56 -26 47 -11 -10 16 6 33 17 18 7 -10
8 -8 3 7 -5 18 -1 22 17 22 13 0 76 3 141 7 117 8 117 8 117 -14 0 -16 5 -21
18 -19 10 2 16 11 14 21 -2 12 4 17 23 17 14 0 25 -5 25 -11 0 -16 313 -6 318
10 2 6 21 11 43 11 21 0 39 5 39 11 0 6 14 24 31 41 l31 31 -39 14 c-49 18
-153 38 -273 53 -52 6 -122 15 -155 21 -33 5 -90 9 -127 9 -38 -1 -68 3 -68 7
0 4 -38 8 -85 8 -47 0 -85 -3 -85 -7z"/>
<path d="M2498 7563 c12 -2 32 -2 45 0 12 2 2 4 -23 4 -25 0 -35 -2 -22 -4z"/>
<path d="M3532 5894 c-62 -19 -81 -30 -121 -73 l-47 -50 -37 41 c-20 22 -37
44 -37 48 0 5 -9 11 -20 15 -31 10 -76 -31 -90 -81 -15 -53 -8 -199 10 -235
26 -49 68 -76 111 -71 4 1 23 2 43 4 20 1 36 6 36 10 0 5 11 13 24 18 27 10
96 -5 96 -20 0 -6 10 -10 23 -10 12 1 42 -1 67 -3 25 -2 59 2 76 9 17 7 34 10
38 7 3 -4 6 -2 6 3 0 16 61 47 90 46 15 0 48 -14 74 -30 60 -39 100 -45 161
-28 87 25 125 41 125 51 0 5 4 5 8 -2 4 -6 37 -12 77 -14 44 -1 84 -9 107 -20
21 -11 58 -19 86 -19 43 0 53 5 85 36 56 56 59 144 6 200 -16 17 -24 41 -28
86 -6 60 -8 64 -41 81 -24 12 -46 16 -70 11 -50 -9 -93 -15 -107 -16 -7 -1
-13 -4 -13 -8 0 -3 -44 -6 -97 -7 -96 0 -97 -1 -125 -32 -25 -27 -28 -39 -28
-96 0 -35 -4 -66 -8 -69 -4 -3 -19 1 -32 7 -19 10 -26 25 -35 72 -12 64 -32
105 -52 105 -6 0 -13 5 -15 11 -3 9 -9 9 -25 0 -34 -18 -82 -13 -139 14 -72
34 -97 35 -182 9z m100 -151 c26 -24 23 -69 -6 -88 -49 -33 -96 28 -62 80 19
29 42 32 68 8z"/>
<path d="M5480 5901 c-26 -11 -72 -19 -109 -20 -142 -2 -185 -31 -197 -132 -5
-47 -10 -59 -21 -55 -8 4 -18 6 -22 6 -4 0 -8 6 -8 13 -2 126 -64 190 -163
168 -23 -5 -52 -19 -65 -31 -30 -29 -85 -29 -121 -1 -36 29 -80 28 -88 -1 -14
-55 -4 -103 51 -228 25 -56 42 -70 92 -77 35 -5 43 -2 68 24 15 17 36 33 45
36 19 7 68 -27 68 -47 0 -13 42 -47 75 -61 47 -19 115 -17 153 5 44 26 61 31
127 37 28 3 57 11 65 18 8 7 31 15 49 17 27 4 41 0 60 -18 31 -29 35 -29 62
-6 29 24 52 81 50 124 -2 26 4 43 18 57 40 40 52 23 62 -84 2 -22 7 -44 11
-50 43 -53 59 -69 66 -60 4 6 21 18 39 27 41 21 92 15 117 -14 10 -13 23 -22
27 -20 5 1 9 -3 9 -9 0 -5 4 -8 9 -5 5 4 11 0 13 -6 5 -14 138 -23 138 -9 0 4
19 14 43 21 23 8 47 17 52 21 14 10 78 15 91 6 6 -3 32 5 59 18 51 26 75 31
75 16 0 -6 29 -9 64 -8 68 2 95 17 121 67 19 36 27 98 14 106 -6 3 -8 13 -5
21 11 29 -44 103 -76 103 -10 0 -21 -7 -24 -15 -4 -8 -12 -15 -20 -15 -8 0
-14 -7 -14 -15 0 -19 -66 -21 -77 -1 -21 35 -83 51 -141 35 -31 -9 -49 -9 -65
-1 -110 52 -119 55 -180 50 -34 -3 -79 -14 -99 -23 -34 -17 -40 -17 -80 -2
-58 21 -108 31 -138 28 -42 -4 -72 -4 -155 2 -65 5 -89 3 -125 -12z m654 -167
c22 -21 20 -61 -3 -74 -31 -16 -49 -12 -67 15 -34 52 27 103 70 59z"/>
<path d="M4615 5411 c-23 -4 -66 -21 -97 -38 -73 -42 -155 -62 -251 -61 -48 0
-83 -5 -92 -12 -26 -22 -152 -5 -242 32 -74 31 -84 32 -193 30 -63 -1 -194 -6
-290 -12 -262 -15 -370 -20 -530 -25 -172 -6 -401 -16 -450 -20 -19 -2 -117
-6 -218 -10 -100 -3 -204 -12 -230 -20 -158 -44 -217 -66 -252 -94 -56 -45
-81 -51 -174 -47 -96 5 -133 20 -167 70 -13 19 -41 45 -62 58 -21 13 -45 29
-52 36 -22 20 -72 26 -105 12 -16 -7 -30 -15 -30 -19 0 -15 -87 -94 -117 -107
-24 -10 -80 -14 -210 -13 -232 1 -260 -9 -331 -128 -89 -150 -141 -270 -186
-423 -24 -85 -74 -252 -111 -370 -37 -118 -83 -269 -102 -335 -54 -186 -62
-206 -94 -224 l-29 -16 0 -721 0 -721 82 -7 c45 -4 133 -17 197 -30 64 -13
152 -29 196 -36 119 -17 125 -19 125 -44 0 -40 40 -62 156 -86 171 -34 298
-30 664 25 87 13 911 150 1115 185 33 6 152 26 265 45 113 19 241 41 285 49
44 8 148 24 230 36 83 12 267 43 410 70 416 78 592 108 725 125 139 17 179 26
212 49 65 46 186 -14 197 -97 5 -35 12 -45 45 -63 32 -18 52 -22 105 -19 36 2
74 6 84 10 17 7 17 9 1 26 -9 10 -30 21 -48 25 -39 8 -86 32 -86 43 0 14 67
35 210 66 36 7 106 27 155 43 50 16 117 35 150 42 292 58 482 124 553 191 41
38 50 61 63 158 6 42 17 95 25 119 8 23 14 64 14 90 0 26 7 72 15 102 20 74
19 109 -5 147 -13 22 -32 36 -62 44 -69 20 -77 46 -23 72 45 22 58 55 52 139
-6 79 -31 123 -85 145 -38 16 -38 16 -490 8 -132 -2 -245 0 -258 6 -37 13 -49
56 -73 239 -30 229 -30 236 -32 320 -1 41 -5 84 -10 95 -4 11 -15 67 -24 125
-9 58 -21 114 -25 125 -5 11 -11 43 -14 72 -7 60 -67 264 -97 328 -45 96 -165
170 -319 197 -14 3 -43 2 -65 -1z m-1840 -1911 c3 -5 26 -10 51 -10 54 0 109
-21 123 -48 19 -36 -17 -54 -126 -63 -54 -5 -104 -12 -112 -14 -22 -8 -51 25
-51 57 0 16 7 42 15 58 13 26 21 30 55 30 21 0 42 -4 45 -10z m715 -39 c0 -11
-49 -21 -55 -11 -7 11 1 15 29 18 14 1 26 -2 26 -7z m-72 -25 c-10 -46 -163
-129 -253 -138 -44 -4 -47 37 -5 77 16 16 30 26 30 23 0 -4 24 2 54 13 30 10
68 20 86 21 17 1 34 6 36 10 9 15 56 9 52 -6z m-328 -226 c12 -22 4 -87 -13
-108 -6 -7 -16 -11 -23 -8 -7 3 -14 0 -16 -6 -5 -15 -38 54 -38 79 0 23 10 37
35 51 29 17 43 15 55 -8z"/>
<path d="M9991 5077 c-18 -18 -13 -99 9 -127 20 -26 27 -75 11 -84 -4 -3 -12
-38 -15 -78 -4 -40 -14 -85 -22 -101 -8 -15 -18 -51 -21 -78 -3 -28 -16 -64
-29 -82 -12 -18 -37 -57 -56 -87 -31 -53 -32 -59 -31 -156 1 -83 5 -107 23
-139 21 -38 21 -39 3 -51 -48 -33 -53 -46 -53 -120 0 -40 -5 -85 -11 -101 -6
-15 -10 -29 -10 -31 5 -13 -55 -104 -81 -124 -18 -14 -46 -44 -63 -66 -46 -62
-81 -72 -231 -72 -127 0 -190 7 -349 36 -101 19 -114 32 -118 110 -5 107 -49
146 -186 164 -47 6 -129 18 -182 26 -53 7 -115 14 -138 14 -53 0 -130 -36
-142 -66 -4 -13 -13 -24 -19 -24 -6 0 -10 -18 -9 -42 3 -59 -7 -83 -34 -86
-20 -1 -23 3 -24 33 -1 19 3 35 7 35 13 0 24 41 21 75 -3 34 -50 88 -92 105
-19 8 -55 10 -106 6 -100 -9 -145 -9 -213 -2 -67 8 -78 0 -109 -76 -20 -49
-26 -57 -56 -62 -32 -6 -173 14 -240 35 -16 5 -93 24 -170 44 -77 19 -171 44
-210 56 -38 11 -74 21 -80 23 -101 27 -283 112 -349 166 -21 16 -40 30 -45 32
-4 2 -35 44 -69 93 -33 50 -71 96 -83 104 -20 12 -24 11 -41 -10 -25 -32 -19
-93 21 -222 42 -136 116 -248 202 -308 95 -66 222 -101 634 -174 238 -42 316
-60 373 -87 54 -25 80 -26 151 -3 15 4 20 -2 25 -36 11 -67 34 -99 73 -99 39
0 74 13 96 35 16 15 17 15 17 -2 0 -10 8 -34 18 -52 22 -41 41 -46 137 -41 68
4 211 -21 254 -45 24 -14 62 -30 85 -35 67 -17 117 -42 112 -56 -3 -7 0 -14 6
-16 7 -3 8 -10 4 -17 -6 -9 -26 -11 -70 -7 -33 3 -90 8 -126 11 -36 2 -90 9
-120 15 -30 7 -68 14 -85 16 -16 3 -68 13 -115 23 -78 17 -262 22 -276 8 -3
-2 -7 -17 -10 -32 -4 -21 0 -28 16 -32 11 -3 20 -8 20 -12 0 -4 35 -25 78 -46
73 -38 82 -40 172 -41 97 0 241 -17 295 -34 65 -21 122 -40 160 -54 52 -20
204 -21 249 -2 41 17 75 61 117 150 19 41 56 94 92 132 l59 64 73 0 c39 0 114
-9 166 -19 52 -11 113 -22 137 -25 67 -9 102 -34 102 -73 0 -20 -6 -36 -17
-42 -14 -7 -18 -21 -16 -62 3 -79 11 -132 23 -165 6 -16 12 -50 12 -76 1 -38
8 -54 35 -84 18 -21 33 -47 33 -57 0 -11 3 -17 6 -14 9 9 40 -51 48 -93 3 -19
1 -51 -4 -70 -9 -33 -8 -37 25 -68 31 -30 127 -72 162 -72 27 0 71 -41 66 -61
-7 -27 -170 -150 -211 -160 -21 -4 -77 0 -149 12 -389 63 -600 46 -908 -73
-239 -93 -304 -79 -478 102 -116 121 -231 214 -346 282 -127 74 -143 87 -139
111 8 55 154 84 264 52 128 -37 178 -84 255 -238 75 -150 148 -216 227 -203
48 7 79 39 113 114 47 103 35 179 -37 258 -16 17 -38 41 -49 55 -11 13 -54 46
-95 73 -41 27 -86 57 -100 66 -61 40 -160 90 -220 111 -58 20 -90 23 -281 27
-312 6 -395 -12 -441 -98 -46 -85 -78 -93 -238 -60 -52 11 -140 25 -195 31
-132 14 -169 3 -202 -61 -38 -75 -92 -460 -80 -579 3 -31 19 -86 37 -125 17
-38 44 -128 60 -200 29 -132 83 -304 114 -363 9 -18 16 -48 16 -68 0 -34 -3
-38 -52 -60 -49 -22 -129 -32 -183 -23 -41 7 -68 55 -75 135 -4 58 -10 78 -25
90 -32 24 -89 10 -135 -31 -46 -41 -46 -41 -87 -21 -27 14 -136 126 -157 163
-5 9 -25 37 -44 62 -19 25 -41 61 -49 80 -19 44 -41 70 -71 81 -58 22 -83 -44
-39 -104 119 -163 205 -276 224 -297 26 -28 30 -68 8 -77 -27 -10 -104 18
-188 69 -44 26 -82 48 -84 48 -9 0 -317 210 -387 264 -43 34 -88 68 -100 76
-21 15 -76 69 -171 169 -85 90 -113 97 -317 77 -161 -15 -193 -26 -221 -73
-16 -29 -18 -55 -18 -245 1 -313 -14 -582 -34 -643 -26 -74 -36 -82 -88 -68
-46 13 -84 8 -105 -14 -11 -11 -11 -20 2 -56 9 -23 18 -63 20 -89 3 -49 19
-78 41 -78 7 0 44 -13 82 -29 68 -29 143 -90 143 -117 0 -8 5 -14 10 -14 6 0
10 -6 10 -14 0 -8 7 -17 16 -20 25 -10 124 -7 145 4 32 17 24 60 -21 109 -49
55 -54 93 -12 110 47 18 145 41 180 41 56 0 268 -79 305 -113 84 -81 157 -106
233 -80 49 17 70 53 60 106 -8 45 23 87 64 87 42 0 137 -38 191 -75 81 -57
108 -68 157 -61 84 11 101 56 62 158 -40 105 -25 128 82 128 35 0 92 5 128 11
138 21 156 21 189 5 42 -22 114 -96 130 -134 19 -46 63 -62 173 -62 51 0 121
5 154 10 34 6 101 14 149 19 73 7 91 13 112 34 30 30 27 56 -13 105 -35 42
-68 42 -125 -1 -42 -31 -48 -32 -139 -32 -59 0 -108 5 -130 14 -37 15 -90 59
-90 74 0 19 -49 54 -92 66 -52 15 -95 51 -104 87 -13 49 60 61 117 19 19 -13
44 -30 57 -36 12 -7 22 -16 22 -21 0 -4 57 -8 128 -8 138 0 185 -9 244 -46 21
-13 62 -29 91 -35 28 -6 95 -20 147 -32 76 -18 127 -22 255 -22 169 0 206 8
229 50 23 41 66 101 94 132 16 17 39 46 50 65 11 18 39 51 62 73 23 22 51 58
62 80 29 57 124 182 149 195 11 6 34 8 50 5 32 -7 99 -67 99 -88 0 -7 11 -42
25 -77 14 -35 27 -93 29 -129 3 -45 13 -82 31 -116 20 -38 24 -58 20 -86 -4
-20 -3 -53 0 -72 6 -30 14 -39 58 -61 41 -20 61 -39 92 -87 99 -154 273 -283
455 -338 203 -61 280 -75 437 -75 84 -1 144 -4 135 -9 -10 -4 -3 -6 20 -4 20
2 35 0 32 -4 -2 -4 6 -9 18 -12 12 -4 25 -2 28 2 6 11 80 -17 80 -30 0 -5 -9
-9 -20 -9 -13 0 -20 -7 -20 -18 0 -11 -14 -25 -35 -35 -20 -9 -38 -23 -41 -31
-3 -8 -40 -34 -82 -59 -42 -25 -89 -57 -104 -71 -14 -14 -38 -28 -51 -31 -14
-4 -28 -13 -31 -21 -3 -8 -12 -14 -20 -14 -8 0 -26 -11 -40 -25 -14 -14 -33
-25 -42 -25 -9 0 -33 -13 -54 -30 -21 -16 -42 -30 -48 -30 -5 0 -15 -7 -22
-15 -7 -8 -18 -15 -25 -15 -19 0 -109 -60 -128 -87 l-18 -23 871 0 870 0 0
710 c0 391 -2 710 -5 710 -3 0 -10 -11 -15 -25 -5 -14 -21 -30 -35 -37 -14 -6
-25 -16 -25 -21 0 -17 -406 -427 -423 -427 -3 0 -21 -15 -41 -34 -19 -19 -54
-43 -78 -54 -51 -22 -118 -35 -118 -21 0 5 -13 9 -30 9 -16 0 -30 5 -30 11 0
5 -4 8 -9 5 -5 -4 -17 -3 -27 1 -14 5 -15 8 -3 17 8 6 15 20 17 31 2 11 16 40
32 65 15 25 44 77 64 115 36 72 71 115 144 175 24 19 52 50 62 68 22 36 48
173 81 425 23 181 22 250 -7 310 -16 33 -16 43 -5 90 7 28 15 84 18 124 5 86
14 94 121 113 39 7 72 17 72 22 0 4 -9 8 -19 8 -11 0 -30 13 -43 28 -15 18
-58 42 -118 66 -81 33 -182 86 -200 106 -7 7 -95 64 -95 61 0 -1 -38 21 -85
48 -47 28 -92 51 -100 51 -9 0 -31 13 -50 30 -19 16 -41 29 -48 30 -8 0 -26 8
-40 18 -15 9 -36 22 -47 28 -11 6 -24 20 -30 32 -5 12 -13 22 -17 22 -11 0 15
56 38 82 11 13 41 41 67 62 26 22 65 57 86 78 24 23 49 38 64 38 36 0 95 -27
119 -55 17 -20 31 -25 66 -25 25 0 50 6 58 15 9 8 27 18 42 22 35 8 48 22 54
58 3 17 17 60 30 96 23 61 76 131 201 264 11 11 26 31 35 45 9 14 29 41 43 60
43 56 109 185 109 213 0 16 -8 31 -20 37 -14 7 -20 7 -20 0 0 -5 -5 -10 -11
-10 -7 0 -40 -24 -74 -52 -95 -80 -236 -175 -301 -204 -64 -28 -195 -51 -236
-41 -39 10 -45 29 -53 155 -6 103 -4 117 14 153 12 22 21 46 21 54 0 8 5 15
11 15 15 0 3 59 -16 80 -21 23 -19 47 5 72 43 47 61 101 59 184 -1 53 4 96 16
129 20 58 20 119 1 184 -15 54 -7 92 27 130 50 55 55 71 50 161 -3 61 -9 90
-21 103 -45 50 -121 84 -141 64z m-1791 -1357 c0 -5 -8 -10 -17 -10 -15 0 -16
2 -3 10 19 12 20 12 20 0z m-63 -9 c12 -1 24 -9 28 -21 3 -11 14 -20 23 -20
15 0 15 -2 2 -10 -23 -15 -30 -12 -30 10 0 11 -4 20 -10 20 -5 0 -10 -8 -10
-18 0 -19 -64 -42 -115 -42 -14 0 -25 -4 -25 -10 0 -18 -19 -10 -25 11 -12 38
60 91 115 84 14 -2 35 -4 47 -4z m83 -152 c0 -5 -7 -9 -15 -9 -15 0 -20 12 -9
23 8 8 24 -1 24 -14z m1938 -1378 c18 -11 12 -41 -10 -54 -23 -15 -68 6 -68
32 0 28 48 42 78 22z m-5127 -330 c276 -226 299 -248 299 -278 0 -33 -75 -53
-270 -73 -101 -11 -153 0 -177 36 -20 30 -37 220 -27 302 12 108 55 111 175
13z m2036 -152 c13 -13 6 -39 -11 -39 -22 0 -36 21 -23 36 15 16 20 17 34 3z
m-1465 -284 c43 -17 189 -104 243 -143 33 -24 47 -47 83 -131 23 -56 42 -110
42 -120 0 -25 -38 -57 -64 -53 -11 2 -89 37 -173 78 -174 86 -209 96 -237 65
-16 -18 -18 -31 -13 -85 5 -57 4 -66 -17 -85 -12 -11 -31 -21 -42 -21 -27 0
-112 43 -214 108 -109 71 -138 82 -199 81 -28 -1 -58 4 -66 11 -28 23 -48 81
-49 142 -1 99 20 108 319 142 243 28 340 31 387 11z m3768 -230 c36 -9 70 -20
75 -25 6 -4 38 -10 72 -14 85 -9 123 -24 123 -46 0 -11 5 -22 11 -26 15 -9
-39 -64 -63 -64 -10 0 -18 -4 -18 -8 0 -5 -28 -24 -62 -41 -58 -31 -69 -33
-167 -34 -60 0 -126 5 -151 12 -60 18 -166 70 -186 92 -16 18 -16 20 0 38 10
11 35 23 57 26 23 4 43 14 49 26 17 31 62 71 89 79 35 11 93 6 171 -15z"/>
<path d="M10776 4221 c-14 -22 -23 -158 -21 -291 6 -273 21 -525 33 -545 9
-15 11 79 12 413 0 396 -3 457 -24 423z"/>
<path d="M10442 2998 c-16 -16 -15 -57 2 -64 7 -3 14 -17 14 -31 0 -14 9 -33
20 -42 11 -9 23 -27 27 -40 4 -14 29 -48 56 -76 59 -63 113 -85 163 -67 18 7
42 12 54 12 22 0 22 3 22 138 l0 137 -120 2 c-72 1 -120 -2 -120 -7 0 -6 10
-10 22 -10 12 0 19 -3 15 -6 -3 -3 -31 -1 -61 6 -49 10 -56 14 -56 36 0 26
-18 32 -38 12z"/>
<path d="M10745 2500 c-3 -5 -17 -10 -29 -10 -13 0 -29 -7 -36 -15 -7 -8 -25
-15 -40 -15 -34 0 -65 -31 -48 -48 8 -8 8 -15 0 -25 -15 -18 -3 -29 98 -91
112 -69 110 -71 110 84 l0 130 -24 0 c-14 0 -28 -4 -31 -10z"/>
<path d="M3579 2025 c-39 -21 -41 -38 -8 -78 33 -40 130 -92 154 -83 32 12 12
121 -27 154 -24 19 -91 24 -119 7z"/>
<path d="M2981 1959 c-28 -30 -28 -89 -1 -114 18 -16 23 -17 45 -5 35 19 67
74 63 107 -3 25 -7 28 -45 31 -32 2 -46 -2 -62 -19z"/>
<path d="M0 965 l0 -965 870 0 871 0 -18 23 c-19 27 -109 87 -128 87 -7 0 -18
7 -25 15 -7 8 -17 15 -22 15 -6 0 -27 13 -47 29 -21 16 -49 33 -63 36 -15 4
-34 15 -44 26 -9 10 -23 19 -31 19 -7 0 -16 6 -19 14 -3 8 -17 17 -31 21 -13
3 -37 17 -51 31 -15 14 -59 45 -99 69 -40 24 -81 53 -92 64 -12 12 -25 21 -31
21 -14 0 -131 90 -137 106 -3 8 -13 14 -23 14 -10 0 -31 12 -47 27 -16 16 -48
44 -72 63 -23 19 -60 53 -82 75 -21 21 -39 36 -39 32 0 -11 -116 106 -128 130
-17 31 -15 37 15 70 122 130 165 206 182 321 38 251 -10 337 -279 500 -123 75
-272 122 -387 122 l-43 0 0 -965z"/>
<path d="M3052 1698 c-15 -15 -15 -85 0 -129 19 -56 77 -139 111 -159 17 -11
56 -24 87 -30 30 -6 75 -15 100 -21 25 -5 106 -23 180 -39 165 -36 264 -81
304 -138 33 -48 33 -75 0 -101 -22 -18 -39 -20 -113 -19 -113 2 -182 -15 -227
-57 -27 -26 -35 -40 -32 -61 4 -34 42 -63 93 -71 75 -11 137 -50 245 -154 132
-128 160 -140 232 -103 27 14 29 18 15 26 -9 5 -17 20 -17 33 0 13 -4 27 -10
30 -5 3 -14 23 -20 45 -6 22 -27 60 -47 86 -27 36 -33 52 -26 63 5 9 45 35 88
59 118 63 185 137 185 203 0 46 -56 136 -107 173 -152 108 -247 148 -522 217
-108 27 -250 69 -316 95 -114 44 -173 64 -185 64 -3 0 -11 -5 -18 -12z"/>
</g>
</svg>
