<?xml version="1.0" standalone="no"?>
<!DOCTYPE svg PUBLIC "-//W3C//DTD SVG 20010904//EN"
 "http://www.w3.org/TR/2001/REC-SVG-20010904/DTD/svg10.dtd">
<svg version="1.0" xmlns="http://www.w3.org/2000/svg"
 width="1280.000000pt" height="1280.000000pt" viewBox="0 0 1280.000000 1280.000000"
 preserveAspectRatio="xMidYMid meet">

<g transform="translate(0.000000,1280.000000) scale(0.100000,-0.100000)"
fill="#000000" stroke="none">
<path d="M6265 9364 c-76 -7 -200 -25 -235 -34 -162 -43 -260 -77 -350 -122
-30 -16 -60 -28 -67 -28 -7 0 -13 -3 -13 -8 0 -4 -21 -18 -47 -32 -60 -31
-172 -107 -193 -130 -3 -3 -21 -17 -40 -30 -90 -62 -297 -298 -373 -425 -18
-30 -122 -241 -138 -280 -28 -68 -73 -230 -91 -325 -5 -30 -13 -276 -17 -547
-3 -270 -8 -494 -11 -496 -3 -3 -287 -7 -632 -9 -344 -1 -630 -6 -634 -10 -4
-4 2 -38 13 -75 26 -84 54 -195 88 -338 15 -60 33 -136 41 -168 8 -32 14 -69
14 -82 0 -13 4 -34 9 -47 9 -23 20 -74 45 -208 28 -151 82 -487 90 -560 3 -25
10 -85 16 -135 27 -232 32 -311 37 -600 6 -348 -9 -577 -47 -727 -24 -93 -31
-118 -56 -200 -14 -48 -23 -93 -21 -100 3 -7 6 -3 6 10 1 12 6 22 11 22 6 0
10 7 10 15 0 8 5 25 12 38 25 49 28 58 28 82 0 14 4 25 9 25 5 0 11 12 14 27
3 16 11 46 17 68 6 22 16 60 21 85 61 296 73 445 73 850 0 349 -15 587 -53
873 -35 254 -48 337 -61 402 -6 28 -14 75 -20 105 -19 112 -43 232 -60 310
-24 110 -32 162 -24 169 5 4 108 4 229 0 121 -4 358 -7 528 -8 l307 -1 0 -209
0 -209 -48 -35 c-80 -57 -112 -156 -78 -239 30 -70 115 -127 190 -128 35 0 96
20 96 32 0 4 4 8 10 8 15 0 50 33 50 47 0 7 3 13 8 13 14 0 32 54 32 96 0 74
-41 142 -113 187 l-27 18 2 207 3 207 1578 3 1577 2 0 -220 c0 -213 -1 -220
-20 -220 -11 0 -20 -4 -20 -8 0 -5 -11 -14 -24 -21 -59 -32 -85 -164 -47 -239
73 -143 272 -148 350 -8 28 50 29 142 1 191 -22 39 -68 84 -86 85 -21 0 -24
29 -24 231 0 151 3 201 13 204 6 2 247 6 535 10 l522 7 0 -24 c0 -13 -7 -55
-15 -93 -21 -95 -36 -170 -45 -230 -4 -27 -17 -108 -29 -180 -27 -158 -35
-213 -55 -375 -32 -248 -35 -277 -46 -395 -6 -66 -15 -165 -20 -220 -13 -131
-13 -772 0 -872 6 -43 15 -116 21 -163 26 -205 78 -405 138 -529 17 -37 27
-49 29 -36 2 9 0 20 -5 24 -5 3 -15 26 -22 51 -7 25 -17 54 -21 65 -9 20 -14
44 -30 125 -5 25 -13 65 -19 90 -16 73 -36 344 -35 490 1 353 61 949 134 1340
6 30 15 82 20 115 23 139 43 250 60 325 7 30 16 74 21 98 5 23 14 63 20 90 6
26 13 65 16 87 3 22 9 44 14 49 5 6 9 19 9 30 0 27 39 196 51 218 5 10 9 31 9
47 0 27 -3 29 -42 34 -24 2 -306 5 -628 6 -449 1 -586 4 -592 14 -4 6 -8 194
-9 417 -1 477 -10 604 -50 745 -6 22 -13 55 -16 73 -3 18 -9 35 -14 38 -5 3
-9 14 -9 25 0 10 -4 27 -9 37 -5 9 -13 28 -19 42 -26 65 -89 190 -119 238 -18
29 -33 56 -33 61 0 5 -3 11 -7 13 -5 2 -24 26 -43 54 -78 113 -172 212 -315
334 -37 31 -163 121 -190 136 -184 99 -279 140 -400 174 -112 31 -148 39 -215
50 -78 11 -335 21 -405 14z m364 -136 c48 -7 88 -15 91 -19 3 -4 23 -9 45 -12
89 -13 115 -20 115 -28 0 -5 9 -9 20 -9 11 0 28 -4 38 -9 17 -9 57 -26 102
-44 52 -20 147 -71 202 -108 31 -22 61 -39 67 -39 5 0 11 -3 13 -8 2 -4 23
-23 48 -42 69 -52 175 -154 240 -230 12 -14 32 -37 46 -52 13 -15 24 -31 24
-34 0 -3 14 -23 30 -44 17 -21 30 -41 30 -45 0 -4 8 -19 18 -33 66 -95 155
-309 183 -442 36 -175 39 -214 39 -667 0 -249 -3 -453 -7 -453 -969 -3 -3137
1 -3143 5 -14 9 -13 798 1 904 6 48 18 118 26 156 8 39 17 81 19 95 3 14 9 34
14 45 4 11 18 49 30 85 26 76 81 194 92 198 4 2 8 10 8 18 0 8 23 48 50 90 28
41 50 79 50 84 0 5 3 10 8 12 4 2 27 28 52 58 79 97 301 300 328 300 6 0 12 4
14 9 6 18 251 151 278 151 6 0 18 4 28 9 31 16 66 29 107 42 22 6 50 15 63 20
13 5 36 9 52 9 17 0 30 5 30 10 0 6 19 10 43 11 23 0 60 4 82 8 62 13 329 12
424 -1z m-1931 -3088 c3 -73 20 -100 61 -100 49 1 61 20 61 99 0 63 2 72 17
69 27 -5 63 -67 63 -108 0 -71 -72 -140 -146 -140 -63 0 -132 71 -133 138 -1
45 35 114 57 110 14 -3 18 -16 20 -68z m3282 5 c0 -75 20 -105 69 -105 43 0
61 31 61 107 0 74 15 82 52 31 60 -85 -9 -216 -115 -218 -52 0 -109 42 -133
99 -15 37 -7 81 24 129 27 42 42 28 42 -43z"/>
</g>
</svg>
